PathFileType	4	(X/Y/Z)	72_1_44_p0_0-354_filt_butterworth.trc
DataRate	CameraRate	NumFrames	NumMarkers	Units	OrigDataRate	OrigDataStartFrame	OrigNumFrames
60.0	60.0	6	27	m	60.0	132	354
Frame#	Time	RHip			RKnee			RAnkle			RBigToe			RSmallToe			RHeel			LHip			LKnee			LAnkle			LBigToe			LSmallToe			LHeel			Neck			Head			Nose			RShoulder			RElbow			RWrist			RThumb			RIndex			RPinky			LShoulder			LElbow			LWrist			LThumb			LIndex			LPinky			
		X1	Y1	Z1	X2	Y2	Z2	X3	Y3	Z3	X4	Y4	Z4	X5	Y5	Z5	X6	Y6	Z6	X7	Y7	Z7	X8	Y8	Z8	X9	Y9	Z9	X10	Y10	Z10	X11	Y11	Z11	X12	Y12	Z12	X13	Y13	Z13	X14	Y14	Z14	X15	Y15	Z15	X16	Y16	Z16	X17	Y17	Z17	X18	Y18	Z18	X19	Y19	Z19	X20	Y20	Z20	X21	Y21	Z21	X22	Y22	Z22	X23	Y23	Z23	X24	Y24	Z24	X25	Y25	Z25	X26	Y26	Z26	X27	Y27	Z27	
132	2.2	0.2477763690957967	0.9291362876876377	0.4774843955837642	0.2266867864906177	0.5258454432135093	0.5631780928361704	0.17638667670043232	0.12419314530479138	0.5869255409843618	0.12792728334553513	0.1395392408461418	0.39307683060854914	0.20084984984155735	0.11392492466715497	0.4462551191207872	0.17995468199607734	0.043086861564572504	0.6816775363891733	0.04169748096899427	0.9237389743262107	0.5124926344160838	0.04217072670708224	0.5493152863332901	0.5333334252700908	0.051639834148923515	0.13508925566862554	0.6103734810073135	0.004861458417007667	0.12825190155700975	0.43586035088063674	-0.03254255852032327	0.1385451756389846	0.45941821440714015	0.0686632931118307	0.023274199028719477	0.716557226318217	0.13358167106001753	1.528168765102877	0.481607185229043	0.13185498367222595	1.7894568474230437	0.46211005343796524	0.11947084317472459	1.6536499467278856	0.3570429462105643	0.3183496381630338	1.4267026548281476	0.48706253651911147	0.3573999983806196	1.1703648630159957	0.4814740662191013	0.3417901238953306	0.8970616432895671	0.44281966425925356	0.27403307593301074	0.7805242032205837	0.452109617340548	0.29068220620561114	0.7785920735450931	0.4170476469844717	0.3424001970411894	0.7696459447690699	0.4587699878824059	-0.02164555814843582	1.4433377737559843	0.5586432719737907	-0.06706679468173986	1.1870987631444043	0.5230683391358046	-0.0643286666410384	0.9289364124339994	0.4894765150500714	-0.012929855401754727	0.8538848587973323	0.42187243711332745	-0.029624932042414086	0.8162954750257535	0.40797178544559665	-0.06818523030887937	0.786877999114601	0.4866205953882329	
133	2.216666666666667	0.24777556082488408	0.9291408272317956	0.477459377666126	0.22685653031793246	0.5274563885656786	0.5620767295624023	0.17638463589877967	0.12385820648632663	0.5867044136521721	0.12787063135647617	0.13893153357582064	0.3928891182259941	0.2010793612882666	0.11305012596825392	0.4464834156105048	0.17955512256081252	0.042950878633309715	0.6814635819458109	0.041875585760970606	0.9239946277302753	0.5113139029396063	0.04213194981797951	0.5495319352570053	0.5332474925975084	0.05156133654428936	0.13507503623720155	0.6106031878616118	0.0038114994847854807	0.13032398958986555	0.4333546176561226	-0.03288300854093235	0.138244647302524	0.459671051653313	0.0684604072411415	0.02428153675734762	0.7155783035565687	0.13358832413423163	1.5282556126728852	0.4816074947427119	0.1318351571799023	1.7894738581899179	0.46211285655945833	0.11944559815462219	1.6532019818147528	0.3570618795783883	0.31848565641066684	1.4268771779305687	0.4857235104368566	0.3574011091292464	1.170366106764022	0.48148137194680357	0.34184503886774276	0.8963179898609591	0.4428069734823868	0.2749489013365697	0.7806538493389612	0.4515734626816899	0.2905489624812379	0.778595609460644	0.4171268683642928	0.3434444859204857	0.7691272700734514	0.4599522939122481	-0.021657680601545447	1.4426405390023556	0.558742035388193	-0.06726615499564274	1.1864449513782747	0.5230470305131517	-0.06433349365860505	0.9289225701361107	0.48946206832052735	-0.013248812857442945	0.8539498620955488	0.42168417712961465	-0.029782541437589502	0.8162177305676809	0.408087170433757	-0.06822553823431325	0.7868355456299586	0.48661050435995196	
134	2.2333333333333334	0.24777379438400934	0.9291465780990753	0.47743271028936485	0.2270138665341452	0.5287299247077522	0.5610157387262225	0.17638012053596483	0.12353472318805604	0.58648082879142	0.12785012238476318	0.13811713022854571	0.39268698372522887	0.2012975122393845	0.11234863549452363	0.4467545157146404	0.17896811845386784	0.04288182860321478	0.6810222032974123	0.04207054127518886	0.9242899591821923	0.5100978679716299	0.04211662180689278	0.5496065558292279	0.533206258483746	0.05153087127210529	0.1350662727345811	0.6106725821547618	0.003065006764979085	0.13162483847761636	0.43168451713044714	-0.03309015588460762	0.13810327174292822	0.45972482971305545	0.06827202892407963	0.025216743803888653	0.7147209034165358	0.1335944383937106	1.528198627514371	0.48160997208785084	0.1318222445824412	1.7894765021570886	0.46210389505179533	0.11939990461049332	1.652476121094237	0.3571085766820258	0.31845308537802897	1.426626829864855	0.4860366009325316	0.3574050040073622	1.1703835570984324	0.48147131493762224	0.34198750928801047	0.8956868865881613	0.44297140516158273	0.2753709464456804	0.781007304064836	0.45040227975353697	0.2903470117196242	0.7785986013209047	0.41721511682308776	0.3440438383333288	0.7688431759225428	0.4602062783725998	-0.02169600879371173	1.4421155888932722	0.5587172071065338	-0.06766812901591417	1.1862202527684593	0.5229602810739217	-0.06434697285943827	0.9289108828740261	0.4894420513477104	-0.013398460288248258	0.8538876220019623	0.4219573076241473	-0.029928566255725333	0.8159257397548924	0.40808517611234446	-0.06825085086050534	0.7867952896314241	0.48660444478687803	
135	2.25	0.24777107880646126	0.9291475070682814	0.4774079573819875	0.2271380488204434	0.5296850737271739	0.5599521664751563	0.17637517096351388	0.12323120269822048	0.5862787402002332	0.12786372136992358	0.13721895923347413	0.3924851778591338	0.20149803382579878	0.11188674120165365	0.4471076645248093	0.17829467614385106	0.04284235337504616	0.6804016025589605	0.04227889005966423	0.9246228415854219	0.5088673509585763	0.04212226877738767	0.5495567304287201	0.5332046930039138	0.05153387535076134	0.13502305955814825	0.6106741431488097	0.002813345851618911	0.1319024642027756	0.4312868808141299	-0.03316714071903833	0.13823502978506244	0.4597555966825204	0.06811934954224223	0.026055974920645947	0.7140437848686965	0.13360156152460753	1.5279086376853015	0.48159385108150937	0.13182083169438072	1.7894630679986805	0.462080653496273	0.1193799011606381	1.651682518399031	0.3570875211451938	0.3182782417245652	1.4260251413206277	0.4877429612765193	0.35741005852248975	1.1704122912893797	0.4814471567403179	0.3421064909709396	0.8953106547216502	0.44311435115472086	0.2752214976844297	0.7814345065648239	0.4490768981865579	0.29005423642121747	0.7785879721929797	0.4173194011392582	0.34398721269447363	0.7688987809410103	0.45956227114339854	-0.02172496385096928	1.441826233165898	0.5586614616115905	-0.06825150458291694	1.1864990556211035	0.5228105843490919	-0.06436867983978783	0.9289024761707517	0.48942221371364997	-0.013365819603168197	0.8535998690194752	0.42298702503655095	-0.03004572128941602	0.8153861281705894	0.407957592540348	-0.06825973727437071	0.7867673317933388	0.486601713986131	
136	2.2666666666666666	0.24776907629593858	0.9291451120418283	0.477386167663695	0.2271944077292052	0.5303751990525489	0.5589033711091551	0.1763695538287861	0.12295661422868928	0.5861043530817605	0.1278987587949385	0.13635278202911844	0.3923075067514429	0.2016816795319711	0.1116301910313141	0.44755490405041315	0.17767163038934905	0.04281818735734793	0.679638605710116	0.04249365627461394	0.9249679832714311	0.5076466198335194	0.04213548678792901	0.5494659529446545	0.5332165481973491	0.05154840802766148	0.13495419171702194	0.6106757948503628	0.0030777821403932004	0.1312129447708331	0.43218279071197235	-0.03316011576213711	0.1387665691610784	0.45994291190130343	0.06800271000575377	0.026788173578050387	0.7135125481664439	0.13361105605394785	1.5273915581966258	0.4815405559863046	0.1318294240938013	1.7894393825193002	0.4620575428500094	0.11937289498646211	1.6509743545645437	0.35701442599118716	0.3180483105644697	1.4252585664824926	0.48999685586341074	0.35740770181345377	1.1704475215540948	0.48146199848682325	0.3419757893455887	0.8953268637222259	0.44281664950106886	0.27450709859251887	0.7818401422891306	0.4478915500163757	0.28969354063279795	0.778556861206926	0.4174320745481268	0.3432892571254683	0.7692596132296758	0.45832502640346884	-0.021729335368882725	1.441769139831785	0.5586252485100952	-0.0689398093650147	1.1872048513018485	0.522618708324334	-0.06439550115637015	0.9288967959940934	0.48940722961099287	-0.013184544531045778	0.8530702249300826	0.42479846798779447	-0.030146646882299774	0.8146438406877398	0.4077458472120674	-0.06825841966801795	0.78675711399849	0.48659863990317404	
137	2.283333333333333	0.24776874240594515	0.9291419300289225	0.4773657243496688	0.22715724429488474	0.5308549887462506	0.5579232272493035	0.17636255646874777	0.1227187916202268	0.5859520191255934	0.1279374203297191	0.13563613066849603	0.3921741620777327	0.2017789621820656	0.11146869634566407	0.44791292640557806	0.17719213365481762	0.042856755965922824	0.6787342996274781	0.04270747049085979	0.9253020879411188	0.5064629606631887	0.04214374096918437	0.5494105410698406	0.5332172089135615	0.05155769969336237	0.13491252993550598	0.6106840862663676	0.0036360226193566866	0.1299787957987438	0.4338161316240712	-0.033134847104201164	0.1396092088426853	0.46028333902409185	0.06791688449165069	0.02740728587881338	0.7130898826226088	0.13362290577695146	1.526723337346774	0.4814483791439598	0.13183681899435598	1.7894165539549216	0.4620887402591075	0.11934442918263483	1.6504434068430966	0.35702031012790225	0.3178743494592194	1.4246026778298864	0.4917117297295678	0.35737445211207963	1.170489532568721	0.48162340857747304	0.3414046358247007	0.895752999417947	0.44171729169661705	0.27330045667401764	0.7821847787884777	0.4469533151301953	0.2892523584481701	0.7785076521037515	0.41753362306842534	0.342164027462323	0.7698097387405044	0.45657225779592764	-0.021716958098447744	1.4418570425794575	0.5586121798159565	-0.06965178756649001	1.1881245817211419	0.5224121559792451	-0.06442276131781152	0.9288915097761921	0.48940070661479107	-0.012968668406240863	0.8523335900306723	0.42724556959207294	-0.03024544638387455	0.8138262836628427	0.4075220910131052	-0.06825762454061128	0.786758186373716	0.4865935758634228	
